<svg width="268" height="133" viewBox="0 0 268 133" fill="none" xmlns="http://www.w3.org/2000/svg">
<path d="M46 133V21L0 20.5V2H116.5V21H68V133H46Z" fill="black"/>
<path d="M197 131V18.5H151V0H267.5V18.5H219V131H197Z" fill="black"/>
<path d="M112.5 64H67V80H112.5V64Z" fill="black"/>
<path d="M142.152 27.7165L116.435 2L103 15.435L128.717 41.1515L142.152 27.7165Z" fill="black"/>
<path d="M145.255 95.8198L113.435 64L100 77.435L131.82 109.255L145.255 95.8198Z" fill="black"/>
<path d="M150.82 64L119 95.8198L132.435 109.255L164.255 77.435L150.82 64Z" fill="black"/>
<path d="M151 64V131H177V64H151Z" fill="black"/>
<path d="M112.5 117H67V133H112.5V117Z" fill="black"/>
</svg>
